<mxfile host="65bd71144e">
    <diagram id="y2h2jKkZ7CMOle_7NU-P" name="第 1 页">
        <mxGraphModel dx="728" dy="817" grid="1" gridSize="10" guides="1" tooltips="1" connect="1" arrows="1" fold="1" page="1" pageScale="1" pageWidth="827" pageHeight="1169" background="#114B5F" math="0" shadow="0">
            <root>
                <mxCell id="0"/>
                <mxCell id="1" parent="0"/>
                <mxCell id="orfuCzbIho5QTT02JkH8-3" value="letter" style="edgeStyle=orthogonalEdgeStyle;rounded=0;orthogonalLoop=1;jettySize=auto;html=1;strokeColor=#028090;fontColor=#E4FDE1;labelBackgroundColor=#114B5F;" parent="1" source="orfuCzbIho5QTT02JkH8-1" target="orfuCzbIho5QTT02JkH8-2" edge="1">
                    <mxGeometry relative="1" as="geometry"/>
                </mxCell>
                <mxCell id="orfuCzbIho5QTT02JkH8-13" value="digit" style="edgeStyle=orthogonalEdgeStyle;rounded=0;orthogonalLoop=1;jettySize=auto;html=1;exitX=0.5;exitY=1;exitDx=0;exitDy=0;entryX=0;entryY=0.5;entryDx=0;entryDy=0;strokeColor=#028090;fontColor=#E4FDE1;labelBackgroundColor=#114B5F;" parent="1" source="orfuCzbIho5QTT02JkH8-1" target="orfuCzbIho5QTT02JkH8-12" edge="1">
                    <mxGeometry relative="1" as="geometry"/>
                </mxCell>
                <mxCell id="z5eESLb9FrIxuf57Hn2N-10" value="" style="edgeStyle=none;curved=1;rounded=0;orthogonalLoop=1;jettySize=auto;html=1;endArrow=open;startSize=14;endSize=14;sourcePerimeterSpacing=8;targetPerimeterSpacing=8;strokeColor=#028090;fontColor=#E4FDE1;labelBackgroundColor=#114B5F;" parent="1" source="orfuCzbIho5QTT02JkH8-1" target="z5eESLb9FrIxuf57Hn2N-9" edge="1">
                    <mxGeometry relative="1" as="geometry">
                        <Array as="points">
                            <mxPoint x="150" y="750"/>
                        </Array>
                    </mxGeometry>
                </mxCell>
                <mxCell id="z5eESLb9FrIxuf57Hn2N-11" value="=" style="edgeLabel;html=1;align=center;verticalAlign=middle;resizable=0;points=[];fontColor=#E4FDE1;labelBackgroundColor=#114B5F;" parent="z5eESLb9FrIxuf57Hn2N-10" vertex="1" connectable="0">
                    <mxGeometry x="0.692" y="40" relative="1" as="geometry">
                        <mxPoint as="offset"/>
                    </mxGeometry>
                </mxCell>
                <mxCell id="z5eESLb9FrIxuf57Hn2N-18" value="" style="edgeStyle=none;curved=1;rounded=0;orthogonalLoop=1;jettySize=auto;html=1;endArrow=open;startSize=14;endSize=14;sourcePerimeterSpacing=8;targetPerimeterSpacing=8;entryX=0.007;entryY=0.366;entryDx=0;entryDy=0;entryPerimeter=0;strokeColor=#028090;fontColor=#E4FDE1;labelBackgroundColor=#114B5F;" parent="1" target="z5eESLb9FrIxuf57Hn2N-17" edge="1">
                    <mxGeometry relative="1" as="geometry">
                        <Array as="points">
                            <mxPoint x="158" y="530"/>
                        </Array>
                        <mxPoint x="157.64219395841178" y="190.0020561789607" as="sourcePoint"/>
                        <mxPoint x="360" y="810" as="targetPoint"/>
                    </mxGeometry>
                </mxCell>
                <mxCell id="z5eESLb9FrIxuf57Hn2N-19" value="+&lt;span style=&quot;white-space: pre&quot;&gt;&#9;&lt;/span&gt;-&lt;span style=&quot;white-space: pre&quot;&gt;&#9;&lt;/span&gt;/&lt;span style=&quot;white-space: pre&quot;&gt;&#9;&lt;/span&gt;*" style="edgeLabel;html=1;align=center;verticalAlign=middle;resizable=0;points=[];fontColor=#E4FDE1;labelBackgroundColor=#114B5F;" parent="z5eESLb9FrIxuf57Hn2N-18" vertex="1" connectable="0">
                    <mxGeometry x="0.7299" y="4" relative="1" as="geometry">
                        <mxPoint x="13" y="-14" as="offset"/>
                    </mxGeometry>
                </mxCell>
                <mxCell id="z5eESLb9FrIxuf57Hn2N-21" value="" style="edgeStyle=none;curved=1;rounded=0;orthogonalLoop=1;jettySize=auto;html=1;endArrow=open;startSize=14;endSize=14;sourcePerimeterSpacing=8;targetPerimeterSpacing=8;strokeColor=#028090;fontColor=#E4FDE1;labelBackgroundColor=#114B5F;" parent="1" source="orfuCzbIho5QTT02JkH8-1" target="z5eESLb9FrIxuf57Hn2N-20" edge="1">
                    <mxGeometry relative="1" as="geometry">
                        <Array as="points">
                            <mxPoint x="170" y="810"/>
                        </Array>
                    </mxGeometry>
                </mxCell>
                <mxCell id="z5eESLb9FrIxuf57Hn2N-32" value="， ； :&amp;nbsp; （ ） [&amp;nbsp; ]&lt;span style=&quot;white-space: pre&quot;&gt;&#9;&lt;/span&gt;{&lt;span style=&quot;white-space: pre&quot;&gt;&#9;&lt;/span&gt;} ." style="edgeLabel;html=1;align=center;verticalAlign=middle;resizable=0;points=[];fontColor=#E4FDE1;labelBackgroundColor=#114B5F;" parent="z5eESLb9FrIxuf57Hn2N-21" vertex="1" connectable="0">
                    <mxGeometry x="0.9247" y="-1" relative="1" as="geometry">
                        <mxPoint x="-9" y="-39" as="offset"/>
                    </mxGeometry>
                </mxCell>
                <mxCell id="z5eESLb9FrIxuf57Hn2N-34" value="" style="edgeStyle=none;curved=1;rounded=0;orthogonalLoop=1;jettySize=auto;html=1;endArrow=open;startSize=14;endSize=14;sourcePerimeterSpacing=8;targetPerimeterSpacing=8;strokeColor=#028090;fontColor=#E4FDE1;labelBackgroundColor=#114B5F;" parent="1" source="orfuCzbIho5QTT02JkH8-1" target="z5eESLb9FrIxuf57Hn2N-33" edge="1">
                    <mxGeometry relative="1" as="geometry">
                        <Array as="points">
                            <mxPoint x="130" y="1310"/>
                        </Array>
                    </mxGeometry>
                </mxCell>
                <mxCell id="z5eESLb9FrIxuf57Hn2N-37" value="!" style="edgeLabel;html=1;align=center;verticalAlign=middle;resizable=0;points=[];fontColor=#E4FDE1;labelBackgroundColor=#114B5F;" parent="z5eESLb9FrIxuf57Hn2N-34" vertex="1" connectable="0">
                    <mxGeometry x="0.8458" y="21" relative="1" as="geometry">
                        <mxPoint as="offset"/>
                    </mxGeometry>
                </mxCell>
                <mxCell id="z5eESLb9FrIxuf57Hn2N-42" value="" style="edgeStyle=none;curved=1;rounded=0;orthogonalLoop=1;jettySize=auto;html=1;endArrow=open;startSize=14;endSize=14;sourcePerimeterSpacing=8;targetPerimeterSpacing=8;strokeColor=#028090;fontColor=#E4FDE1;labelBackgroundColor=#114B5F;" parent="1" source="orfuCzbIho5QTT02JkH8-1" target="z5eESLb9FrIxuf57Hn2N-41" edge="1">
                    <mxGeometry relative="1" as="geometry">
                        <Array as="points">
                            <mxPoint x="50" y="1310"/>
                        </Array>
                    </mxGeometry>
                </mxCell>
                <mxCell id="z5eESLb9FrIxuf57Hn2N-43" value="&amp;gt;" style="edgeLabel;html=1;align=center;verticalAlign=middle;resizable=0;points=[];fontColor=#E4FDE1;labelBackgroundColor=#114B5F;" parent="z5eESLb9FrIxuf57Hn2N-42" vertex="1" connectable="0">
                    <mxGeometry x="0.9131" relative="1" as="geometry">
                        <mxPoint as="offset"/>
                    </mxGeometry>
                </mxCell>
                <mxCell id="z5eESLb9FrIxuf57Hn2N-49" value="" style="edgeStyle=none;curved=1;rounded=0;orthogonalLoop=1;jettySize=auto;html=1;endArrow=open;startSize=14;endSize=14;sourcePerimeterSpacing=8;targetPerimeterSpacing=8;strokeColor=#028090;fontColor=#E4FDE1;labelBackgroundColor=#114B5F;" parent="1" source="orfuCzbIho5QTT02JkH8-1" target="z5eESLb9FrIxuf57Hn2N-48" edge="1">
                    <mxGeometry relative="1" as="geometry">
                        <Array as="points">
                            <mxPoint x="110" y="2050"/>
                        </Array>
                    </mxGeometry>
                </mxCell>
                <mxCell id="z5eESLb9FrIxuf57Hn2N-50" value="&amp;lt;" style="edgeLabel;html=1;align=center;verticalAlign=middle;resizable=0;points=[];fontColor=#E4FDE1;labelBackgroundColor=#114B5F;" parent="z5eESLb9FrIxuf57Hn2N-49" vertex="1" connectable="0">
                    <mxGeometry x="0.9651" y="54" relative="1" as="geometry">
                        <mxPoint as="offset"/>
                    </mxGeometry>
                </mxCell>
                <mxCell id="z5eESLb9FrIxuf57Hn2N-56" value="" style="edgeStyle=none;curved=1;rounded=0;orthogonalLoop=1;jettySize=auto;html=1;endArrow=open;startSize=14;endSize=14;sourcePerimeterSpacing=8;targetPerimeterSpacing=8;strokeColor=#028090;fontColor=#E4FDE1;labelBackgroundColor=#114B5F;" parent="1" source="orfuCzbIho5QTT02JkH8-1" target="z5eESLb9FrIxuf57Hn2N-55" edge="1">
                    <mxGeometry relative="1" as="geometry">
                        <Array as="points">
                            <mxPoint x="110" y="2298"/>
                        </Array>
                    </mxGeometry>
                </mxCell>
                <mxCell id="z5eESLb9FrIxuf57Hn2N-57" value="&quot;" style="edgeLabel;html=1;align=center;verticalAlign=middle;resizable=0;points=[];fontColor=#E4FDE1;labelBackgroundColor=#114B5F;" parent="z5eESLb9FrIxuf57Hn2N-56" vertex="1" connectable="0">
                    <mxGeometry x="0.9659" y="48" relative="1" as="geometry">
                        <mxPoint as="offset"/>
                    </mxGeometry>
                </mxCell>
                <mxCell id="orfuCzbIho5QTT02JkH8-1" value="0" style="ellipse;whiteSpace=wrap;html=1;aspect=fixed;fillColor=#F45B69;strokeColor=#028090;fontColor=#E4FDE1;" parent="1" vertex="1">
                    <mxGeometry x="120" y="110" width="80" height="80" as="geometry"/>
                </mxCell>
                <mxCell id="orfuCzbIho5QTT02JkH8-10" value="other" style="edgeStyle=orthogonalEdgeStyle;rounded=0;orthogonalLoop=1;jettySize=auto;html=1;strokeColor=#028090;fontColor=#E4FDE1;labelBackgroundColor=#114B5F;" parent="1" source="orfuCzbIho5QTT02JkH8-2" target="orfuCzbIho5QTT02JkH8-9" edge="1">
                    <mxGeometry relative="1" as="geometry"/>
                </mxCell>
                <mxCell id="orfuCzbIho5QTT02JkH8-2" value="1" style="ellipse;whiteSpace=wrap;html=1;aspect=fixed;fillColor=#F45B69;strokeColor=#028090;fontColor=#E4FDE1;" parent="1" vertex="1">
                    <mxGeometry x="280" y="110" width="80" height="80" as="geometry"/>
                </mxCell>
                <mxCell id="orfuCzbIho5QTT02JkH8-5" style="edgeStyle=orthogonalEdgeStyle;rounded=0;orthogonalLoop=1;jettySize=auto;html=1;entryX=0.5;entryY=0;entryDx=0;entryDy=0;strokeColor=#028090;fontColor=#E4FDE1;labelBackgroundColor=#114B5F;" parent="1" source="orfuCzbIho5QTT02JkH8-1" target="orfuCzbIho5QTT02JkH8-1" edge="1">
                    <mxGeometry relative="1" as="geometry">
                        <Array as="points">
                            <mxPoint x="220" y="110"/>
                            <mxPoint x="220" y="60"/>
                            <mxPoint x="160" y="60"/>
                        </Array>
                    </mxGeometry>
                </mxCell>
                <mxCell id="orfuCzbIho5QTT02JkH8-7" value="blank/tab/new line" style="edgeLabel;html=1;align=center;verticalAlign=middle;resizable=0;points=[];fontColor=#E4FDE1;labelBackgroundColor=#114B5F;" parent="orfuCzbIho5QTT02JkH8-5" vertex="1" connectable="0">
                    <mxGeometry x="0.3855" y="2" relative="1" as="geometry">
                        <mxPoint as="offset"/>
                    </mxGeometry>
                </mxCell>
                <mxCell id="orfuCzbIho5QTT02JkH8-8" value="letter/digit" style="edgeStyle=orthogonalEdgeStyle;rounded=0;orthogonalLoop=1;jettySize=auto;html=1;exitX=0.5;exitY=0;exitDx=0;exitDy=0;entryX=0;entryY=0;entryDx=0;entryDy=0;strokeColor=#028090;fontColor=#E4FDE1;labelBackgroundColor=#114B5F;" parent="1" source="orfuCzbIho5QTT02JkH8-2" target="orfuCzbIho5QTT02JkH8-2" edge="1">
                    <mxGeometry relative="1" as="geometry">
                        <Array as="points">
                            <mxPoint x="350" y="110"/>
                            <mxPoint x="350" y="70"/>
                            <mxPoint x="292" y="70"/>
                        </Array>
                    </mxGeometry>
                </mxCell>
                <mxCell id="orfuCzbIho5QTT02JkH8-9" value="2&lt;br&gt;return id(需要进一步匹配是否为关键字量&lt;br&gt;)" style="ellipse;whiteSpace=wrap;html=1;aspect=fixed;fillColor=#F45B69;strokeColor=#028090;fontColor=#E4FDE1;" parent="1" vertex="1">
                    <mxGeometry x="440" y="110" width="80" height="80" as="geometry"/>
                </mxCell>
                <mxCell id="orfuCzbIho5QTT02JkH8-14" style="edgeStyle=orthogonalEdgeStyle;rounded=0;orthogonalLoop=1;jettySize=auto;html=1;exitX=1;exitY=0;exitDx=0;exitDy=0;entryX=0.02;entryY=0.217;entryDx=0;entryDy=0;entryPerimeter=0;strokeColor=#028090;fontColor=#E4FDE1;labelBackgroundColor=#114B5F;" parent="1" source="orfuCzbIho5QTT02JkH8-12" target="orfuCzbIho5QTT02JkH8-12" edge="1">
                    <mxGeometry relative="1" as="geometry">
                        <mxPoint x="280" y="302" as="targetPoint"/>
                        <Array as="points">
                            <mxPoint x="348" y="260"/>
                            <mxPoint x="282" y="260"/>
                        </Array>
                    </mxGeometry>
                </mxCell>
                <mxCell id="orfuCzbIho5QTT02JkH8-15" value="ditgit" style="edgeLabel;html=1;align=center;verticalAlign=middle;resizable=0;points=[];fontColor=#E4FDE1;labelBackgroundColor=#114B5F;" parent="orfuCzbIho5QTT02JkH8-14" vertex="1" connectable="0">
                    <mxGeometry x="0.1737" y="-2" relative="1" as="geometry">
                        <mxPoint as="offset"/>
                    </mxGeometry>
                </mxCell>
                <mxCell id="orfuCzbIho5QTT02JkH8-17" value="other" style="edgeStyle=orthogonalEdgeStyle;rounded=0;orthogonalLoop=1;jettySize=auto;html=1;strokeColor=#028090;fontColor=#E4FDE1;labelBackgroundColor=#114B5F;" parent="1" source="orfuCzbIho5QTT02JkH8-12" target="orfuCzbIho5QTT02JkH8-16" edge="1">
                    <mxGeometry relative="1" as="geometry"/>
                </mxCell>
                <mxCell id="orfuCzbIho5QTT02JkH8-19" value=".(小数点)" style="edgeStyle=orthogonalEdgeStyle;rounded=0;orthogonalLoop=1;jettySize=auto;html=1;strokeColor=#028090;fontColor=#E4FDE1;labelBackgroundColor=#114B5F;" parent="1" source="orfuCzbIho5QTT02JkH8-12" target="orfuCzbIho5QTT02JkH8-18" edge="1">
                    <mxGeometry relative="1" as="geometry"/>
                </mxCell>
                <mxCell id="orfuCzbIho5QTT02JkH8-12" value="3" style="ellipse;whiteSpace=wrap;html=1;aspect=fixed;fillColor=#F45B69;strokeColor=#028090;fontColor=#E4FDE1;" parent="1" vertex="1">
                    <mxGeometry x="280" y="290" width="80" height="80" as="geometry"/>
                </mxCell>
                <mxCell id="orfuCzbIho5QTT02JkH8-16" value="4&lt;br&gt;return int_value" style="ellipse;whiteSpace=wrap;html=1;aspect=fixed;fillColor=#F45B69;strokeColor=#028090;fontColor=#E4FDE1;" parent="1" vertex="1">
                    <mxGeometry x="440" y="290" width="80" height="80" as="geometry"/>
                </mxCell>
                <mxCell id="orfuCzbIho5QTT02JkH8-20" style="edgeStyle=orthogonalEdgeStyle;rounded=0;orthogonalLoop=1;jettySize=auto;html=1;exitX=1;exitY=0;exitDx=0;exitDy=0;strokeColor=#028090;fontColor=#E4FDE1;labelBackgroundColor=#114B5F;" parent="1" source="orfuCzbIho5QTT02JkH8-18" edge="1">
                    <mxGeometry relative="1" as="geometry">
                        <mxPoint x="300" y="450" as="targetPoint"/>
                    </mxGeometry>
                </mxCell>
                <mxCell id="orfuCzbIho5QTT02JkH8-21" value="Text" style="edgeLabel;html=1;align=center;verticalAlign=middle;resizable=0;points=[];fontColor=#E4FDE1;labelBackgroundColor=#114B5F;" parent="orfuCzbIho5QTT02JkH8-20" vertex="1" connectable="0">
                    <mxGeometry x="-0.2718" y="1" relative="1" as="geometry">
                        <mxPoint as="offset"/>
                    </mxGeometry>
                </mxCell>
                <mxCell id="orfuCzbIho5QTT02JkH8-22" value="digit" style="edgeLabel;html=1;align=center;verticalAlign=middle;resizable=0;points=[];fontColor=#E4FDE1;labelBackgroundColor=#114B5F;" parent="orfuCzbIho5QTT02JkH8-20" vertex="1" connectable="0">
                    <mxGeometry x="-0.2718" relative="1" as="geometry">
                        <mxPoint as="offset"/>
                    </mxGeometry>
                </mxCell>
                <mxCell id="orfuCzbIho5QTT02JkH8-24" value="other" style="edgeStyle=orthogonalEdgeStyle;rounded=0;orthogonalLoop=1;jettySize=auto;html=1;strokeColor=#028090;fontColor=#E4FDE1;labelBackgroundColor=#114B5F;" parent="1" source="orfuCzbIho5QTT02JkH8-18" target="orfuCzbIho5QTT02JkH8-23" edge="1">
                    <mxGeometry relative="1" as="geometry"/>
                </mxCell>
                <mxCell id="orfuCzbIho5QTT02JkH8-18" value="5" style="ellipse;whiteSpace=wrap;html=1;aspect=fixed;fillColor=#F45B69;strokeColor=#028090;fontColor=#E4FDE1;" parent="1" vertex="1">
                    <mxGeometry x="280" y="450" width="80" height="80" as="geometry"/>
                </mxCell>
                <mxCell id="orfuCzbIho5QTT02JkH8-23" value="6&lt;br&gt;return float_value" style="ellipse;whiteSpace=wrap;html=1;aspect=fixed;fillColor=#F45B69;strokeColor=#028090;fontColor=#E4FDE1;" parent="1" vertex="1">
                    <mxGeometry x="440" y="450" width="80" height="80" as="geometry"/>
                </mxCell>
                <mxCell id="z5eESLb9FrIxuf57Hn2N-13" value="=" style="edgeStyle=none;curved=1;rounded=0;orthogonalLoop=1;jettySize=auto;html=1;endArrow=open;startSize=14;endSize=14;sourcePerimeterSpacing=8;targetPerimeterSpacing=8;strokeColor=#028090;fontColor=#E4FDE1;labelBackgroundColor=#114B5F;" parent="1" source="z5eESLb9FrIxuf57Hn2N-9" target="z5eESLb9FrIxuf57Hn2N-12" edge="1">
                    <mxGeometry relative="1" as="geometry"/>
                </mxCell>
                <mxCell id="z5eESLb9FrIxuf57Hn2N-15" value="" style="edgeStyle=none;curved=1;rounded=0;orthogonalLoop=1;jettySize=auto;html=1;endArrow=open;startSize=14;endSize=14;sourcePerimeterSpacing=8;targetPerimeterSpacing=8;strokeColor=#028090;fontColor=#E4FDE1;labelBackgroundColor=#114B5F;" parent="1" source="z5eESLb9FrIxuf57Hn2N-9" target="z5eESLb9FrIxuf57Hn2N-14" edge="1">
                    <mxGeometry relative="1" as="geometry">
                        <Array as="points">
                            <mxPoint x="360" y="1400"/>
                        </Array>
                    </mxGeometry>
                </mxCell>
                <mxCell id="z5eESLb9FrIxuf57Hn2N-16" value="other" style="edgeLabel;html=1;align=center;verticalAlign=middle;resizable=0;points=[];fontColor=#E4FDE1;labelBackgroundColor=#114B5F;" parent="z5eESLb9FrIxuf57Hn2N-15" vertex="1" connectable="0">
                    <mxGeometry x="-0.0925" y="10" relative="1" as="geometry">
                        <mxPoint as="offset"/>
                    </mxGeometry>
                </mxCell>
                <mxCell id="z5eESLb9FrIxuf57Hn2N-9" value="9" style="ellipse;whiteSpace=wrap;html=1;aspect=fixed;fillColor=#F45B69;strokeColor=#028090;fontColor=#E4FDE1;" parent="1" vertex="1">
                    <mxGeometry x="260" y="1240" width="80" height="80" as="geometry"/>
                </mxCell>
                <mxCell id="DtLqriHWPh98Xw-Bqeid-8" value="other" style="edgeStyle=none;curved=1;rounded=0;orthogonalLoop=1;jettySize=auto;html=1;endArrow=open;startSize=14;endSize=14;sourcePerimeterSpacing=8;targetPerimeterSpacing=8;strokeColor=#028090;fontColor=#E4FDE1;labelBackgroundColor=#114B5F;" parent="1" source="z5eESLb9FrIxuf57Hn2N-12" target="DtLqriHWPh98Xw-Bqeid-7" edge="1">
                    <mxGeometry relative="1" as="geometry"/>
                </mxCell>
                <mxCell id="z5eESLb9FrIxuf57Hn2N-12" value="10" style="ellipse;whiteSpace=wrap;html=1;aspect=fixed;fillColor=#F45B69;strokeColor=#028090;fontColor=#E4FDE1;" parent="1" vertex="1">
                    <mxGeometry x="420" y="1240" width="80" height="80" as="geometry"/>
                </mxCell>
                <mxCell id="z5eESLb9FrIxuf57Hn2N-14" value="11&lt;br&gt;return assign" style="ellipse;whiteSpace=wrap;html=1;aspect=fixed;fillColor=#F45B69;strokeColor=#028090;fontColor=#E4FDE1;" parent="1" vertex="1">
                    <mxGeometry x="420" y="1400" width="80" height="80" as="geometry"/>
                </mxCell>
                <mxCell id="DtLqriHWPh98Xw-Bqeid-2" value="" style="edgeStyle=none;curved=1;rounded=0;orthogonalLoop=1;jettySize=auto;html=1;endArrow=open;startSize=14;endSize=14;sourcePerimeterSpacing=8;targetPerimeterSpacing=8;strokeColor=#028090;fontColor=#E4FDE1;labelBackgroundColor=#114B5F;" parent="1" source="z5eESLb9FrIxuf57Hn2N-17" target="DtLqriHWPh98Xw-Bqeid-1" edge="1">
                    <mxGeometry relative="1" as="geometry"/>
                </mxCell>
                <mxCell id="DtLqriHWPh98Xw-Bqeid-3" value="other" style="edgeLabel;html=1;align=center;verticalAlign=middle;resizable=0;points=[];fontColor=#E4FDE1;labelBackgroundColor=#114B5F;" parent="DtLqriHWPh98Xw-Bqeid-2" vertex="1" connectable="0">
                    <mxGeometry x="-0.3774" y="-3" relative="1" as="geometry">
                        <mxPoint as="offset"/>
                    </mxGeometry>
                </mxCell>
                <mxCell id="z5eESLb9FrIxuf57Hn2N-17" value="7" style="ellipse;whiteSpace=wrap;html=1;aspect=fixed;fillColor=#F45B69;strokeColor=#028090;fontColor=#E4FDE1;" parent="1" vertex="1">
                    <mxGeometry x="280" y="640" width="80" height="80" as="geometry"/>
                </mxCell>
                <mxCell id="DtLqriHWPh98Xw-Bqeid-5" value="" style="edgeStyle=none;curved=1;rounded=0;orthogonalLoop=1;jettySize=auto;html=1;endArrow=open;startSize=14;endSize=14;sourcePerimeterSpacing=8;targetPerimeterSpacing=8;strokeColor=#028090;fontColor=#E4FDE1;labelBackgroundColor=#114B5F;" parent="1" source="z5eESLb9FrIxuf57Hn2N-20" target="DtLqriHWPh98Xw-Bqeid-4" edge="1">
                    <mxGeometry relative="1" as="geometry"/>
                </mxCell>
                <mxCell id="DtLqriHWPh98Xw-Bqeid-6" value="other" style="edgeLabel;html=1;align=center;verticalAlign=middle;resizable=0;points=[];fontColor=#E4FDE1;labelBackgroundColor=#114B5F;" parent="DtLqriHWPh98Xw-Bqeid-5" vertex="1" connectable="0">
                    <mxGeometry x="0.0601" y="2" relative="1" as="geometry">
                        <mxPoint as="offset"/>
                    </mxGeometry>
                </mxCell>
                <mxCell id="z5eESLb9FrIxuf57Hn2N-20" value="8" style="ellipse;whiteSpace=wrap;html=1;aspect=fixed;fillColor=#F45B69;strokeColor=#028090;fontColor=#E4FDE1;" parent="1" vertex="1">
                    <mxGeometry x="330" y="860" width="80" height="80" as="geometry"/>
                </mxCell>
                <mxCell id="z5eESLb9FrIxuf57Hn2N-39" value="" style="edgeStyle=none;curved=1;rounded=0;orthogonalLoop=1;jettySize=auto;html=1;endArrow=open;startSize=14;endSize=14;sourcePerimeterSpacing=8;targetPerimeterSpacing=8;strokeColor=#028090;fontColor=#E4FDE1;labelBackgroundColor=#114B5F;" parent="1" source="z5eESLb9FrIxuf57Hn2N-33" target="z5eESLb9FrIxuf57Hn2N-38" edge="1">
                    <mxGeometry relative="1" as="geometry"/>
                </mxCell>
                <mxCell id="z5eESLb9FrIxuf57Hn2N-40" value="=" style="edgeLabel;html=1;align=center;verticalAlign=middle;resizable=0;points=[];fontColor=#E4FDE1;labelBackgroundColor=#114B5F;" parent="z5eESLb9FrIxuf57Hn2N-39" vertex="1" connectable="0">
                    <mxGeometry x="-0.497" y="1" relative="1" as="geometry">
                        <mxPoint as="offset"/>
                    </mxGeometry>
                </mxCell>
                <mxCell id="z5eESLb9FrIxuf57Hn2N-33" value="12" style="ellipse;whiteSpace=wrap;html=1;aspect=fixed;fillColor=#F45B69;strokeColor=#028090;fontColor=#E4FDE1;" parent="1" vertex="1">
                    <mxGeometry x="260" y="1540" width="80" height="80" as="geometry"/>
                </mxCell>
                <mxCell id="DtLqriHWPh98Xw-Bqeid-10" value="other" style="edgeStyle=none;curved=1;rounded=0;orthogonalLoop=1;jettySize=auto;html=1;endArrow=open;startSize=14;endSize=14;sourcePerimeterSpacing=8;targetPerimeterSpacing=8;strokeColor=#028090;fontColor=#E4FDE1;labelBackgroundColor=#114B5F;" parent="1" source="z5eESLb9FrIxuf57Hn2N-38" target="DtLqriHWPh98Xw-Bqeid-9" edge="1">
                    <mxGeometry relative="1" as="geometry"/>
                </mxCell>
                <mxCell id="z5eESLb9FrIxuf57Hn2N-38" value="13" style="ellipse;whiteSpace=wrap;html=1;aspect=fixed;fillColor=#F45B69;strokeColor=#028090;fontColor=#E4FDE1;" parent="1" vertex="1">
                    <mxGeometry x="420" y="1540" width="80" height="80" as="geometry"/>
                </mxCell>
                <mxCell id="z5eESLb9FrIxuf57Hn2N-45" value="=" style="edgeStyle=none;curved=1;rounded=0;orthogonalLoop=1;jettySize=auto;html=1;endArrow=open;startSize=14;endSize=14;sourcePerimeterSpacing=8;targetPerimeterSpacing=8;strokeColor=#028090;fontColor=#E4FDE1;labelBackgroundColor=#114B5F;" parent="1" source="z5eESLb9FrIxuf57Hn2N-41" target="z5eESLb9FrIxuf57Hn2N-44" edge="1">
                    <mxGeometry relative="1" as="geometry"/>
                </mxCell>
                <mxCell id="z5eESLb9FrIxuf57Hn2N-47" value="other" style="edgeStyle=none;curved=1;rounded=0;orthogonalLoop=1;jettySize=auto;html=1;endArrow=open;startSize=14;endSize=14;sourcePerimeterSpacing=8;targetPerimeterSpacing=8;strokeColor=#028090;fontColor=#E4FDE1;labelBackgroundColor=#114B5F;" parent="1" source="z5eESLb9FrIxuf57Hn2N-41" target="z5eESLb9FrIxuf57Hn2N-46" edge="1">
                    <mxGeometry relative="1" as="geometry"/>
                </mxCell>
                <mxCell id="z5eESLb9FrIxuf57Hn2N-41" value="14" style="ellipse;whiteSpace=wrap;html=1;aspect=fixed;fillColor=#F45B69;strokeColor=#028090;fontColor=#E4FDE1;" parent="1" vertex="1">
                    <mxGeometry x="260" y="1730" width="80" height="80" as="geometry"/>
                </mxCell>
                <mxCell id="DtLqriHWPh98Xw-Bqeid-12" value="" style="edgeStyle=none;curved=1;rounded=0;orthogonalLoop=1;jettySize=auto;html=1;endArrow=open;startSize=14;endSize=14;sourcePerimeterSpacing=8;targetPerimeterSpacing=8;strokeColor=#028090;fontColor=#E4FDE1;labelBackgroundColor=#114B5F;" parent="1" source="z5eESLb9FrIxuf57Hn2N-44" target="DtLqriHWPh98Xw-Bqeid-11" edge="1">
                    <mxGeometry relative="1" as="geometry"/>
                </mxCell>
                <mxCell id="z5eESLb9FrIxuf57Hn2N-44" value="15" style="ellipse;whiteSpace=wrap;html=1;aspect=fixed;fillColor=#F45B69;strokeColor=#028090;fontColor=#E4FDE1;" parent="1" vertex="1">
                    <mxGeometry x="420" y="1730" width="80" height="80" as="geometry"/>
                </mxCell>
                <mxCell id="z5eESLb9FrIxuf57Hn2N-46" value="16&lt;br&gt;return g" style="ellipse;whiteSpace=wrap;html=1;aspect=fixed;fillColor=#F45B69;strokeColor=#028090;fontColor=#E4FDE1;" parent="1" vertex="1">
                    <mxGeometry x="420" y="1890" width="80" height="80" as="geometry"/>
                </mxCell>
                <mxCell id="z5eESLb9FrIxuf57Hn2N-52" value="=" style="edgeStyle=none;curved=1;rounded=0;orthogonalLoop=1;jettySize=auto;html=1;endArrow=open;startSize=14;endSize=14;sourcePerimeterSpacing=8;targetPerimeterSpacing=8;strokeColor=#028090;fontColor=#E4FDE1;labelBackgroundColor=#114B5F;" parent="1" source="z5eESLb9FrIxuf57Hn2N-48" target="z5eESLb9FrIxuf57Hn2N-51" edge="1">
                    <mxGeometry relative="1" as="geometry"/>
                </mxCell>
                <mxCell id="z5eESLb9FrIxuf57Hn2N-54" value="other" style="edgeStyle=none;curved=1;rounded=0;orthogonalLoop=1;jettySize=auto;html=1;endArrow=open;startSize=14;endSize=14;sourcePerimeterSpacing=8;targetPerimeterSpacing=8;strokeColor=#028090;fontColor=#E4FDE1;labelBackgroundColor=#114B5F;" parent="1" source="z5eESLb9FrIxuf57Hn2N-48" target="z5eESLb9FrIxuf57Hn2N-53" edge="1">
                    <mxGeometry relative="1" as="geometry"/>
                </mxCell>
                <mxCell id="z5eESLb9FrIxuf57Hn2N-48" value="17" style="ellipse;whiteSpace=wrap;html=1;aspect=fixed;fillColor=#F45B69;strokeColor=#028090;fontColor=#E4FDE1;" parent="1" vertex="1">
                    <mxGeometry x="260" y="1980" width="80" height="80" as="geometry"/>
                </mxCell>
                <mxCell id="DtLqriHWPh98Xw-Bqeid-14" value="" style="edgeStyle=none;curved=1;rounded=0;orthogonalLoop=1;jettySize=auto;html=1;endArrow=open;startSize=14;endSize=14;sourcePerimeterSpacing=8;targetPerimeterSpacing=8;strokeColor=#028090;fontColor=#E4FDE1;labelBackgroundColor=#114B5F;" parent="1" source="z5eESLb9FrIxuf57Hn2N-51" target="DtLqriHWPh98Xw-Bqeid-13" edge="1">
                    <mxGeometry relative="1" as="geometry"/>
                </mxCell>
                <mxCell id="z5eESLb9FrIxuf57Hn2N-51" value="18" style="ellipse;whiteSpace=wrap;html=1;aspect=fixed;fillColor=#F45B69;strokeColor=#028090;fontColor=#E4FDE1;" parent="1" vertex="1">
                    <mxGeometry x="420" y="1980" width="80" height="80" as="geometry"/>
                </mxCell>
                <mxCell id="z5eESLb9FrIxuf57Hn2N-53" value="19&lt;br&gt;return l" style="ellipse;whiteSpace=wrap;html=1;aspect=fixed;fillColor=#F45B69;strokeColor=#028090;fontColor=#E4FDE1;" parent="1" vertex="1">
                    <mxGeometry x="420" y="2120" width="80" height="80" as="geometry"/>
                </mxCell>
                <mxCell id="z5eESLb9FrIxuf57Hn2N-59" value="" style="edgeStyle=none;curved=1;rounded=0;orthogonalLoop=1;jettySize=auto;html=1;endArrow=open;startSize=14;endSize=14;sourcePerimeterSpacing=8;targetPerimeterSpacing=8;strokeColor=#028090;fontColor=#E4FDE1;labelBackgroundColor=#114B5F;" parent="1" source="z5eESLb9FrIxuf57Hn2N-55" target="z5eESLb9FrIxuf57Hn2N-58" edge="1">
                    <mxGeometry relative="1" as="geometry"/>
                </mxCell>
                <mxCell id="z5eESLb9FrIxuf57Hn2N-60" value="other" style="edgeLabel;html=1;align=center;verticalAlign=middle;resizable=0;points=[];fontColor=#E4FDE1;labelBackgroundColor=#114B5F;" parent="z5eESLb9FrIxuf57Hn2N-59" vertex="1" connectable="0">
                    <mxGeometry x="-0.3472" y="1" relative="1" as="geometry">
                        <mxPoint as="offset"/>
                    </mxGeometry>
                </mxCell>
                <mxCell id="z5eESLb9FrIxuf57Hn2N-55" value="20" style="ellipse;whiteSpace=wrap;html=1;aspect=fixed;fillColor=#F45B69;strokeColor=#028090;fontColor=#E4FDE1;" parent="1" vertex="1">
                    <mxGeometry x="250" y="2258" width="80" height="80" as="geometry"/>
                </mxCell>
                <mxCell id="z5eESLb9FrIxuf57Hn2N-64" value="&quot;" style="edgeStyle=none;curved=1;rounded=0;orthogonalLoop=1;jettySize=auto;html=1;endArrow=open;startSize=14;endSize=14;sourcePerimeterSpacing=8;targetPerimeterSpacing=8;strokeColor=#028090;fontColor=#E4FDE1;labelBackgroundColor=#114B5F;" parent="1" source="z5eESLb9FrIxuf57Hn2N-58" target="z5eESLb9FrIxuf57Hn2N-63" edge="1">
                    <mxGeometry relative="1" as="geometry"/>
                </mxCell>
                <mxCell id="z5eESLb9FrIxuf57Hn2N-58" value="21" style="ellipse;whiteSpace=wrap;html=1;aspect=fixed;fillColor=#F45B69;strokeColor=#028090;fontColor=#E4FDE1;" parent="1" vertex="1">
                    <mxGeometry x="410" y="2258" width="80" height="80" as="geometry"/>
                </mxCell>
                <mxCell id="z5eESLb9FrIxuf57Hn2N-61" style="edgeStyle=none;curved=1;rounded=0;orthogonalLoop=1;jettySize=auto;html=1;exitX=1;exitY=0;exitDx=0;exitDy=0;entryX=0;entryY=0;entryDx=0;entryDy=0;endArrow=open;startSize=14;endSize=14;sourcePerimeterSpacing=8;targetPerimeterSpacing=8;strokeColor=#028090;fontColor=#E4FDE1;labelBackgroundColor=#114B5F;" parent="1" source="z5eESLb9FrIxuf57Hn2N-58" target="z5eESLb9FrIxuf57Hn2N-58" edge="1">
                    <mxGeometry relative="1" as="geometry">
                        <Array as="points">
                            <mxPoint x="450" y="2220"/>
                        </Array>
                    </mxGeometry>
                </mxCell>
                <mxCell id="z5eESLb9FrIxuf57Hn2N-62" value="other" style="edgeLabel;html=1;align=center;verticalAlign=middle;resizable=0;points=[];fontColor=#E4FDE1;labelBackgroundColor=#114B5F;" parent="z5eESLb9FrIxuf57Hn2N-61" vertex="1" connectable="0">
                    <mxGeometry x="0.4326" y="11" relative="1" as="geometry">
                        <mxPoint as="offset"/>
                    </mxGeometry>
                </mxCell>
                <mxCell id="DtLqriHWPh98Xw-Bqeid-16" value="other" style="edgeStyle=none;curved=1;rounded=0;orthogonalLoop=1;jettySize=auto;html=1;endArrow=open;startSize=14;endSize=14;sourcePerimeterSpacing=8;targetPerimeterSpacing=8;strokeColor=#028090;fontColor=#E4FDE1;labelBackgroundColor=#114B5F;" parent="1" source="z5eESLb9FrIxuf57Hn2N-63" target="DtLqriHWPh98Xw-Bqeid-15" edge="1">
                    <mxGeometry relative="1" as="geometry"/>
                </mxCell>
                <mxCell id="z5eESLb9FrIxuf57Hn2N-63" value="22" style="ellipse;whiteSpace=wrap;html=1;aspect=fixed;fillColor=#F45B69;strokeColor=#028090;fontColor=#E4FDE1;" parent="1" vertex="1">
                    <mxGeometry x="570" y="2258" width="80" height="80" as="geometry"/>
                </mxCell>
                <mxCell id="DtLqriHWPh98Xw-Bqeid-1" value="23&lt;br&gt;return plus" style="ellipse;whiteSpace=wrap;html=1;aspect=fixed;fillColor=#F45B69;strokeColor=#028090;fontColor=#E4FDE1;" parent="1" vertex="1">
                    <mxGeometry x="440" y="640" width="80" height="80" as="geometry"/>
                </mxCell>
                <mxCell id="DtLqriHWPh98Xw-Bqeid-4" value="24&lt;br&gt;return minus" style="ellipse;whiteSpace=wrap;html=1;aspect=fixed;fillColor=#F45B69;strokeColor=#028090;fontColor=#E4FDE1;" parent="1" vertex="1">
                    <mxGeometry x="490" y="860" width="80" height="80" as="geometry"/>
                </mxCell>
                <mxCell id="DtLqriHWPh98Xw-Bqeid-7" value="25&lt;br&gt;return equal" style="ellipse;whiteSpace=wrap;html=1;aspect=fixed;fillColor=#F45B69;strokeColor=#028090;fontColor=#E4FDE1;" parent="1" vertex="1">
                    <mxGeometry x="580" y="1240" width="80" height="80" as="geometry"/>
                </mxCell>
                <mxCell id="DtLqriHWPh98Xw-Bqeid-9" value="26&lt;br&gt;return nequal" style="ellipse;whiteSpace=wrap;html=1;aspect=fixed;fillColor=#F45B69;strokeColor=#028090;fontColor=#E4FDE1;" parent="1" vertex="1">
                    <mxGeometry x="580" y="1540" width="80" height="80" as="geometry"/>
                </mxCell>
                <mxCell id="DtLqriHWPh98Xw-Bqeid-11" value="27&lt;br&gt;return ge" style="ellipse;whiteSpace=wrap;html=1;aspect=fixed;fillColor=#F45B69;strokeColor=#028090;fontColor=#E4FDE1;" parent="1" vertex="1">
                    <mxGeometry x="580" y="1730" width="80" height="80" as="geometry"/>
                </mxCell>
                <mxCell id="DtLqriHWPh98Xw-Bqeid-13" value="28&lt;br&gt;return le" style="ellipse;whiteSpace=wrap;html=1;aspect=fixed;fillColor=#F45B69;strokeColor=#028090;fontColor=#E4FDE1;" parent="1" vertex="1">
                    <mxGeometry x="580" y="1980" width="80" height="80" as="geometry"/>
                </mxCell>
                <mxCell id="DtLqriHWPh98Xw-Bqeid-15" value="29&lt;br&gt;return string" style="ellipse;whiteSpace=wrap;html=1;aspect=fixed;fillColor=#F45B69;strokeColor=#028090;fontColor=#E4FDE1;" parent="1" vertex="1">
                    <mxGeometry x="730" y="2258" width="80" height="80" as="geometry"/>
                </mxCell>
            </root>
        </mxGraphModel>
    </diagram>
</mxfile>